<?xml version="1.0" encoding="UTF-8"?>
<svg id="Layer_2" data-name="Layer 2" xmlns="http://www.w3.org/2000/svg" viewBox="0 0 284.99 78.4">
  <defs>
    <style>
      .cls-1 {
        fill: #f47d59;
      }

      .cls-2 {
        fill: #46c7f0;
      }
    </style>
  </defs>
  <g id="Layer_1-2" data-name="Layer 1">
    <g>
      <g>
        <path class="cls-1" d="M11.51,26.11l25.64,25.64,9.19-9.19-25.64-25.64c-2.54-2.54-6.65-2.54-9.19,0h0c-2.54,2.54-2.54,6.65,0,9.19Z"/>
        <path class="cls-2" d="M53.61,16.92l-25.64,25.64,9.19,9.19,25.64-25.64c2.54-2.54,2.54-6.65,0-9.19h0c-2.54-2.54-6.65-2.54-9.19,0Z"/>
      </g>
      <g>
        <path class="cls-2" d="M16.64,45.93l20.51,20.51,7.35-7.35-20.51-20.51c-2.03-2.03-5.32-2.03-7.35,0h0c-2.03,2.03-2.03,5.32,0,7.35Z"/>
        <path class="cls-1" d="M50.32,38.58l-20.51,20.51,7.35,7.35,20.51-20.51c2.03-2.03,2.03-5.32,0-7.35h0c-2.03-2.03-5.32-2.03-7.35,0Z"/>
      </g>
      <path class="cls-2" d="M38.88,0c21.71,0,38.88,16.97,38.88,39.2s-16.97,39.2-38.88,39.2S0,61.44,0,39.2,16.97,0,38.88,0ZM38.88,69.02c16.44,0,28.56-12.65,28.56-29.82s-12.12-29.82-28.56-29.82-28.66,12.65-28.66,29.82,12.22,29.82,28.66,29.82Z"/>
      <path class="cls-2" d="M89.26,20.85h9.96v39.09c0,5.89,1.82,8.14,6.21,8.14,2.14,0,3.96-.32,4.71-.64v8.57c-.75.32-3.32.96-7.18.96-8.03,0-13.71-4.18-13.71-14.99V20.85Z"/>
      <path class="cls-2" d="M174.65,49.65c0,16.68-12.07,28.75-28.31,28.75s-28.2-12.07-28.2-28.75,11.96-28.75,28.2-28.75,28.31,12.07,28.31,28.75ZM164.77,49.65c0-11.63-7.79-19.86-18.44-19.86s-18.33,8.23-18.33,19.86,7.79,19.86,18.33,19.86,18.44-8.23,18.44-19.86Z"/>
      <path class="cls-1" d="M209.7,44.89l21.2,31.96h-11.63l-17.18-26.31-9.46,10.22v16.09h-10l-.14-56h10.11l.14,28.93,26.78-28.93h12.07l-21.89,24.04Z"/>
      <path class="cls-1" d="M243.68,24.86c3-1.61,9.95-3.96,18.83-3.96,15.09,0,22.47,7.28,22.47,20.65v35.3h-9.2l-.11-7.48c-.11-1.28,0-2.35.11-3.1.11-.43.11-.86.21-1.18h-.21c-.54,1.39-6.53,11.88-18.62,11.88-9.85,0-16.91-5.89-16.91-15.73,0-13.16,12.31-19.58,34.89-16.48v-2.68c0-9.31-5.56-12.52-14.02-12.52-7.38,0-14.13,2.46-17.44,4.49v-9.2ZM274.93,51.72c-17.44-2.89-24.83,2.03-24.83,9.2,0,4.71,3.32,8.03,8.78,8.03,9.1,0,16.05-8.88,16.05-17.23Z"/>
    </g>
  </g>
</svg>